<svg xmlns="http://www.w3.org/2000/svg" viewBox="0 0 512 512" role="img" aria-label="GitHub">
  <circle cx="256" cy="256" r="256" fill="#4f85c8"/>
  <circle cx="256" cy="256" r="226" fill="#5d95da"/>
  <path d="M256 120c-75 0-136 62-136 138 0 61 39 112 93 130 7 1 10-3 10-7v-24c-38 8-46-18-46-18-6-16-15-20-15-20-12-8 1-8 1-8 13 1 20 14 20 14 12 20 31 15 38 11 1-9 5-15 8-19-30-4-61-16-61-70 0-15 5-27 14-37-1-3-6-18 1-37 0 0 11-4 37 14 11-3 23-5 35-5 12 0 24 2 35 5 26-18 37-14 37-14 7 19 2 34 1 37 9 10 14 22 14 37 0 54-31 66-61 70 5 4 9 12 9 24v35c0 4 3 8 10 7 54-18 93-69 93-130 0-76-61-138-136-138z" fill="#0d1117"/>
  <path d="M316 126l118 118v168l-83-83-35-203z" fill="#164a84" opacity="0.55"/>
</svg>
